<svg xmlns="http://www.w3.org/2000/svg" viewBox="0 0 480 270">
  <defs>
    <linearGradient id="bg2" x1="0" y1="0" x2="1" y2="1">
      <stop offset="0%" stop-color="#0f0f14"/>
      <stop offset="100%" stop-color="#101522"/>
    </linearGradient>
    <linearGradient id="hero2" x1="0" y1="0" x2="1" y2="1">
      <stop offset="0%" stop-color="rgba(0,193,112,0.14)"/>
      <stop offset="100%" stop-color="rgba(0,100,60,0.06)"/>
    </linearGradient>
  </defs>
  <rect width="480" height="270" fill="url(#bg2)"/>
  <circle cx="240" cy="135" r="120" fill="#00C170" opacity="0.04"/>
  <!-- Browser frame -->
  <rect x="52" y="24" width="376" height="228" rx="12" fill="rgba(255,255,255,0.04)" stroke="rgba(255,255,255,0.08)" stroke-width="1"/>
  <!-- Chrome bar -->
  <rect x="52" y="24" width="376" height="30" rx="12" fill="rgba(255,255,255,0.06)"/>
  <rect x="52" y="38" width="376" height="16" fill="rgba(255,255,255,0.06)"/>
  <circle cx="76" cy="39" r="5" fill="#FF5F57"/>
  <circle cx="94" cy="39" r="5" fill="#FEBC2E"/>
  <circle cx="112" cy="39" r="5" fill="#28C840"/>
  <!-- URL bar -->
  <rect x="134" y="32" width="216" height="14" rx="7" fill="rgba(255,255,255,0.07)"/>
  <text x="242" y="42" font-family="Arial,sans-serif" font-size="8.5" fill="rgba(255,255,255,0.3)" text-anchor="middle">suaempresa.com.br</text>
  <!-- Nav bar inside -->
  <rect x="52" y="54" width="376" height="22" fill="rgba(255,255,255,0.025)"/>
  <rect x="64" y="61" width="38" height="8" rx="3" fill="rgba(255,255,255,0.3)"/>
  <rect x="280" y="62" width="32" height="6" rx="3" fill="rgba(255,255,255,0.12)"/>
  <rect x="320" y="62" width="32" height="6" rx="3" fill="rgba(255,255,255,0.12)"/>
  <rect x="360" y="61" width="56" height="9" rx="4.5" fill="rgba(0,193,112,0.7)"/>
  <!-- Hero section -->
  <rect x="52" y="76" width="376" height="78" fill="url(#hero2)"/>
  <rect x="72" y="88" width="100" height="11" rx="5" fill="rgba(255,255,255,0.55)"/>
  <rect x="72" y="104" width="160" height="8" rx="3" fill="rgba(255,255,255,0.2)"/>
  <rect x="72" y="116" width="130" height="7" rx="3" fill="rgba(255,255,255,0.15)"/>
  <rect x="72" y="130" width="68" height="18" rx="9" fill="#00C170"/>
  <text x="106" y="142" font-family="Arial,sans-serif" font-size="9" font-weight="700" fill="#000" text-anchor="middle">Agendar →</text>
  <!-- Right hero image placeholder -->
  <rect x="280" y="82" width="130" height="66" rx="8" fill="rgba(255,255,255,0.04)" stroke="rgba(255,255,255,0.06)" stroke-width="1"/>
  <text x="345" y="119" font-family="Arial,sans-serif" font-size="22" fill="rgba(255,255,255,0.07)" text-anchor="middle">📷</text>
  <!-- Cards row -->
  <rect x="64" y="162" width="106" height="76" rx="8" fill="rgba(255,255,255,0.04)" stroke="rgba(255,255,255,0.06)" stroke-width="1"/>
  <rect x="74" y="172" width="66" height="28" rx="5" fill="rgba(0,193,112,0.12)"/>
  <rect x="74" y="206" width="76" height="6" rx="3" fill="rgba(255,255,255,0.2)"/>
  <rect x="74" y="217" width="54" height="6" rx="3" fill="rgba(255,255,255,0.1)"/>
  <rect x="179" y="162" width="106" height="76" rx="8" fill="rgba(255,255,255,0.04)" stroke="rgba(255,255,255,0.06)" stroke-width="1"/>
  <rect x="189" y="172" width="66" height="28" rx="5" fill="rgba(255,255,255,0.06)"/>
  <rect x="189" y="206" width="76" height="6" rx="3" fill="rgba(255,255,255,0.2)"/>
  <rect x="189" y="217" width="54" height="6" rx="3" fill="rgba(255,255,255,0.1)"/>
  <rect x="294" y="162" width="122" height="76" rx="8" fill="rgba(255,255,255,0.04)" stroke="rgba(255,255,255,0.06)" stroke-width="1"/>
  <rect x="304" y="172" width="82" height="28" rx="5" fill="rgba(255,255,255,0.06)"/>
  <rect x="304" y="206" width="76" height="6" rx="3" fill="rgba(255,255,255,0.2)"/>
  <rect x="304" y="217" width="54" height="6" rx="3" fill="rgba(255,255,255,0.1)"/>
  <!-- Badge -->
  <rect x="360" y="30" width="56" height="18" rx="9" fill="rgba(0,193,112,0.14)"/>
  <text x="388" y="43" font-family="Arial,sans-serif" font-size="9" font-weight="700" fill="#00C170" text-anchor="middle">Sites</text>
</svg>
