<svg xmlns="http://www.w3.org/2000/svg" viewBox="0 0 900 600" width="900" height="600">
  <defs>
    <filter id="card-shadow" x="-5%" y="-5%" width="110%" height="120%">
      <feDropShadow dx="0" dy="4" stdDeviation="12" flood-color="rgba(0,0,0,0.18)"/>
    </filter>
    <clipPath id="round"><rect width="900" height="600" rx="16"/></clipPath>
  </defs>

  <!-- Background -->
  <rect width="900" height="600" rx="16" fill="#f1f3f4"/>

  <!-- Chrome bar -->
  <rect x="0" y="0" width="900" height="56" rx="0" fill="#fff" filter="url(#card-shadow)"/>
  <rect x="0" y="0" width="900" height="56" fill="#fff"/>
  <rect x="0" y="55" width="900" height="1" fill="#e0e0e0"/>
  <!-- dots -->
  <circle cx="22" cy="28" r="6" fill="#ff5f57"/>
  <circle cx="42" cy="28" r="6" fill="#febc2e"/>
  <circle cx="62" cy="28" r="6" fill="#28c840"/>
  <!-- URL bar -->
  <rect x="88" y="12" width="620" height="32" rx="16" fill="#f1f3f4"/>
  <text x="398" y="32" text-anchor="middle" font-family="Arial,sans-serif" font-size="13" fill="#5f6368">google.com.br/search?q=clinica+dermatologica+curitiba</text>

  <!-- Google logo area -->
  <rect x="0" y="56" width="900" height="52" fill="#fff"/>
  <rect x="0" y="107" width="900" height="1" fill="#e0e0e0"/>
  <!-- Google logo text -->
  <text x="32" y="90" font-family="Arial,sans-serif" font-size="28" font-weight="700">
    <tspan fill="#4285F4">G</tspan><tspan fill="#EA4335">o</tspan><tspan fill="#FBBC05">o</tspan><tspan fill="#4285F4">g</tspan><tspan fill="#34A853">l</tspan><tspan fill="#EA4335">e</tspan>
  </text>
  <!-- Search box -->
  <rect x="130" y="65" width="500" height="38" rx="20" fill="#fff" stroke="#dfe1e5" stroke-width="1.5"/>
  <text x="155" y="89" font-family="Arial,sans-serif" font-size="14" fill="#202124">clínica dermatológica curitiba</text>
  <!-- search icon -->
  <circle cx="606" cy="84" r="8" fill="none" stroke="#9aa0a6" stroke-width="2"/>
  <line x1="611" y1="89" x2="617" y2="95" stroke="#9aa0a6" stroke-width="2" stroke-linecap="round"/>

  <!-- Nav tabs -->
  <rect x="0" y="108" width="900" height="42" fill="#fff"/>
  <text x="32" y="134" font-family="Arial,sans-serif" font-size="13" fill="#1a73e8" font-weight="600">Tudo</text>
  <line x1="32" y1="149" x2="57" y2="149" stroke="#1a73e8" stroke-width="3"/>
  <text x="80" y="134" font-family="Arial,sans-serif" font-size="13" fill="#5f6368">Mapas</text>
  <text x="135" y="134" font-family="Arial,sans-serif" font-size="13" fill="#5f6368">Imagens</text>
  <text x="200" y="134" font-family="Arial,sans-serif" font-size="13" fill="#5f6368">Vídeos</text>
  <text x="255" y="134" font-family="Arial,sans-serif" font-size="13" fill="#5f6368">Mais</text>
  <rect x="0" y="149" width="900" height="1" fill="#e0e0e0"/>

  <!-- Main content area -->
  <rect x="0" y="150" width="900" height="450" fill="#f1f3f4"/>
  <text x="32" y="178" font-family="Arial,sans-serif" font-size="12" fill="#70757a">Cerca de 142.000 resultados (0,48 segundos)</text>

  <!-- === RESULT 1 — CLIENT (highlighted) === -->
  <rect x="22" y="190" width="575" height="116" rx="10" fill="#fff" filter="url(#card-shadow)"/>
  <!-- green left accent -->
  <rect x="22" y="190" width="4" height="116" rx="2" fill="#00C170"/>
  <!-- Badge -->
  <rect x="38" y="200" width="68" height="18" rx="4" fill="#00C170"/>
  <text x="72" y="213" text-anchor="middle" font-family="Arial,sans-serif" font-size="10" font-weight="700" fill="#000" letter-spacing="0.5">1° RESULTADO</text>
  <!-- URL -->
  <text x="38" y="230" font-family="Arial,sans-serif" font-size="12" fill="#202124">clinicadermaVida.com.br</text>
  <text x="38" y="243" font-family="Arial,sans-serif" font-size="11" fill="#5f6368">www.clinicadermavida.com.br › dermatologista-curitiba</text>
  <!-- Title -->
  <text x="38" y="266" font-family="Arial,sans-serif" font-size="18" fill="#1a0dab" font-weight="500">Clínica Derma Vida – Dermatologista em Curitiba</text>
  <!-- Snippet -->
  <text x="38" y="285" font-family="Arial,sans-serif" font-size="13" fill="#4d5156">Consultas rápidas, tratamentos avançados e equipe especializada. Acne,</text>
  <text x="38" y="301" font-family="Arial,sans-serif" font-size="13" fill="#4d5156">rejuvenescimento e clínica geral. Agende agora pelo WhatsApp.</text>

  <!-- === RESULT 2 === -->
  <rect x="22" y="318" width="575" height="90" rx="10" fill="#fff"/>
  <rect x="22" y="318" width="4" height="90" rx="2" fill="#e0e0e0"/>
  <text x="38" y="338" font-family="Arial,sans-serif" font-size="11" fill="#5f6368">www.dermacuritiba.com.br › clinica-dermatologica</text>
  <text x="38" y="358" font-family="Arial,sans-serif" font-size="17" fill="#1a0dab" font-weight="500">Derma Curitiba – Especialistas em Pele</text>
  <text x="38" y="376" font-family="Arial,sans-serif" font-size="13" fill="#4d5156">Clínica com mais de 10 anos no mercado. Veja nossos serviços e agende</text>
  <text x="38" y="392" font-family="Arial,sans-serif" font-size="13" fill="#4d5156">uma avaliação. Tratamentos dermatológicos em Curitiba-PR.</text>

  <!-- === RESULT 3 === -->
  <rect x="22" y="420" width="575" height="90" rx="10" fill="#fff"/>
  <rect x="22" y="420" width="4" height="90" rx="2" fill="#e0e0e0"/>
  <text x="38" y="440" font-family="Arial,sans-serif" font-size="11" fill="#5f6368">www.skincarecwb.com.br › dermatologista</text>
  <text x="38" y="460" font-family="Arial,sans-serif" font-size="17" fill="#1a0dab" font-weight="500">SkinCare CWB – Dermatologia Estética</text>
  <text x="38" y="478" font-family="Arial,sans-serif" font-size="13" fill="#4d5156">Tratamentos para pele no bairro Batel e Água Verde. Consultas disponíveis</text>
  <text x="38" y="494" font-family="Arial,sans-serif" font-size="13" fill="#4d5156">de segunda a sábado. Marque pelo telefone ou online.</text>

  <!-- === RESULT 4 === -->
  <rect x="22" y="522" width="575" height="65" rx="10" fill="#fff"/>
  <rect x="22" y="522" width="4" height="65" rx="2" fill="#e0e0e0"/>
  <text x="38" y="542" font-family="Arial,sans-serif" font-size="11" fill="#5f6368">clinicapeleecorpo.com.br › curitiba</text>
  <text x="38" y="562" font-family="Arial,sans-serif" font-size="17" fill="#1a0dab" font-weight="500">Pele &amp; Corpo Clínica – Curitiba Centro</text>
  <text x="38" y="578" font-family="Arial,sans-serif" font-size="13" fill="#4d5156">Dermatologia clínica e estética. Agendamento online disponível.</text>

  <!-- Right panel — Maps box -->
  <rect x="618" y="190" width="262" height="280" rx="10" fill="#fff" filter="url(#card-shadow)"/>
  <!-- map placeholder -->
  <rect x="618" y="190" width="262" height="130" rx="10" fill="#e8f0fe"/>
  <rect x="618" y="280" width="262" height="40" fill="#e8f0fe"/>
  <!-- map grid lines -->
  <line x1="618" y1="220" x2="880" y2="220" stroke="#d2e3fc" stroke-width="0.5"/>
  <line x1="618" y1="250" x2="880" y2="250" stroke="#d2e3fc" stroke-width="0.5"/>
  <line x1="690" y1="190" x2="690" y2="320" stroke="#d2e3fc" stroke-width="0.5"/>
  <line x1="760" y1="190" x2="760" y2="320" stroke="#d2e3fc" stroke-width="0.5"/>
  <line x1="830" y1="190" x2="830" y2="320" stroke="#d2e3fc" stroke-width="0.5"/>
  <!-- pin -->
  <circle cx="749" cy="248" r="14" fill="#1a73e8"/>
  <circle cx="749" cy="248" r="6" fill="#fff"/>
  <text x="749" y="275" text-anchor="middle" font-family="Arial,sans-serif" font-size="11" font-weight="700" fill="#1a73e8">Derma Vida</text>
  <!-- map label -->
  <text x="748" y="308" text-anchor="middle" font-family="Arial,sans-serif" font-size="12" fill="#1a73e8" font-weight="600">Ver no Google Maps</text>
  <!-- Business card -->
  <text x="636" y="342" font-family="Arial,sans-serif" font-size="14" font-weight="700" fill="#202124">Clínica Derma Vida</text>
  <text x="636" y="360" font-family="Arial,sans-serif" font-size="12" fill="#5f6368">★★★★★</text>
  <text x="700" y="360" font-family="Arial,sans-serif" font-size="12" fill="#70757a">4,9 (187 avaliações)</text>
  <text x="636" y="378" font-family="Arial,sans-serif" font-size="12" fill="#5f6368">Clínica de Dermatologia · Batel, Curitiba</text>
  <text x="636" y="396" font-family="Arial,sans-serif" font-size="12" fill="#1a73e8">Aberto agora · Fecha às 19h</text>
  <rect x="630" y="408" width="108" height="28" rx="14" fill="#1a73e8"/>
  <text x="684" y="426" text-anchor="middle" font-family="Arial,sans-serif" font-size="12" fill="#fff" font-weight="600">Ligar agora</text>
  <rect x="748" y="408" width="108" height="28" rx="14" fill="#fff" stroke="#dadce0" stroke-width="1.5"/>
  <text x="802" y="426" text-anchor="middle" font-family="Arial,sans-serif" font-size="12" fill="#1a73e8" font-weight="600">Direções</text>
</svg>
